<svg id="グループ_1440" data-name="グループ 1440" xmlns="http://www.w3.org/2000/svg" width="344.95" height="66.45" viewBox="0 0 344.95 66.45">
  <g id="グループ_1437" data-name="グループ 1437">
    <g id="グループ_1431" data-name="グループ 1431" transform="translate(127.876 55.214)">
      <path id="パス_1967" data-name="パス 1967" d="M375.876,303.822a5.93,5.93,0,0,1-.456,2.344,5.332,5.332,0,0,1-1.291,1.842,5.156,5.156,0,0,1-1.763,1.083,6.1,6.1,0,0,1-2.088.354,6.226,6.226,0,0,1-2.065-.338,5.036,5.036,0,0,1-1.723-1.012,5.377,5.377,0,0,1-1.334-1.858,5.925,5.925,0,0,1-.485-2.42,6.029,6.029,0,0,1,.4-2.244,5.275,5.275,0,0,1,1.219-1.821,5.053,5.053,0,0,1,1.763-1.144,6,6,0,0,1,2.207-.4,6.182,6.182,0,0,1,2.164.369,5.1,5.1,0,0,1,1.751,1.083,5.167,5.167,0,0,1,1.274,1.871A6.149,6.149,0,0,1,375.876,303.822Zm-2.7.084a4.9,4.9,0,0,0-.271-1.59,3.128,3.128,0,0,0-.826-1.305,2.645,2.645,0,0,0-.8-.523,2.746,2.746,0,0,0-2.017,0,2.746,2.746,0,0,0-.849.574,3.357,3.357,0,0,0-.766,1.233,4.375,4.375,0,0,0-.274,1.527,4.431,4.431,0,0,0,.274,1.587,3.183,3.183,0,0,0,.8,1.214,2.682,2.682,0,0,0,.817.53,2.706,2.706,0,0,0,2.012.009,2.66,2.66,0,0,0,.838-.548,3.286,3.286,0,0,0,.774-1.182A4.069,4.069,0,0,0,373.177,303.906Z" transform="translate(-364.673 -298.209)" fill="#594d98"/>
      <path id="パス_1968" data-name="パス 1968" d="M390.408,298.489q-.017,1.384-.024,2.776t-.008,2.19q0,1.8.012,3.234t.012,1.812l-1.9.769q-2.008-2.669-3.72-4.756t-2.085-2.524l-.04.016q0,1.708.021,4.133t.019,2.98h-2.445c0-.264.012-.846.02-1.746s.012-2.019.012-3.359q0-.817-.008-2.1t-.024-2.75l2.057-.826q.349.421,2.072,2.549t3.588,4.32l.032-.015q0-1.1-.024-3.248t-.023-3.455Z" transform="translate(-362.978 -298.195)" fill="#594d98"/>
      <path id="パス_1969" data-name="パス 1969" d="M403.054,309.105l-1.559-.007q-1.259-.008-2.435-.009-.936,0-1.83.009t-1.734.007q0-1.334.019-2.875t.012-2.7q0-2.089-.012-3.341c-.008-.834-.016-1.4-.019-1.712h2.636q-.008.961-.017,2.143t-.008,2.208q0,1.523.008,2.728t.009,1.385c.237,0,.51,0,.816,0s.581,0,.824,0q1.046,0,2.053-.008c.671-.006,1.083-.007,1.236-.007Z" transform="translate(-361.319 -298.18)" fill="#594d98"/>
      <path id="パス_1970" data-name="パス 1970" d="M409.985,309.105h-2.628c.006-.449.012-1.1.02-1.953s.012-2.009.012-3.469q0-.921-.008-2.332t-.024-2.877h2.628q-.007,1.088-.019,2.5t-.012,2.521q0,2.245.012,3.474T409.985,309.105Z" transform="translate(-360.029 -298.18)" fill="#594d98"/>
      <path id="パス_1971" data-name="パス 1971" d="M425.973,298.489q-.017,1.384-.024,2.776t-.008,2.19q0,1.8.012,3.234t.012,1.812l-1.9.769q-2.007-2.669-3.72-4.756t-2.085-2.524l-.04.016q0,1.708.021,4.133t.019,2.98h-2.445c0-.264.012-.846.02-1.746s.012-2.019.012-3.359q0-.817-.008-2.1t-.024-2.75l2.057-.826q.349.421,2.072,2.549t3.588,4.32l.032-.015q0-1.1-.024-3.248t-.023-3.455Z" transform="translate(-359.108 -298.195)" fill="#594d98"/>
      <path id="パス_1972" data-name="パス 1972" d="M438.889,309.1l-1.58-.007q-1.294-.008-2.572-.009-1.1,0-2.152.009t-1.525.007c0-.279.012-.89.02-1.831s.012-2.131.012-3.573q0-.913-.008-2.327t-.024-2.885q.541,0,1.536,0c.665,0,1.333,0,2.006,0q1.374,0,2.692,0l1.491,0v1.961q-.135,0-1.039-.008t-1.818-.009c-.355,0-.767,0-1.239,0s-.843,0-1.112,0q0,.6-.008,1.258c-.006.44-.009.839-.009,1.2l1.053,0q.639,0,1.052,0,1.023,0,1.917-.008c.6-.006.975-.009,1.14-.009v1.581l-1.232-.009q-1.071-.008-1.794-.008-.4,0-1.06,0l-1.077,0c0,.62,0,1.15,0,1.593s.007.8.012,1.082q.476.008,1.271.012c.529,0,1.009,0,1.437,0q.9,0,1.644-.008t.96-.009Z" transform="translate(-357.45 -298.179)" fill="#594d98"/>
    </g>
    <g id="グループ_1432" data-name="グループ 1432" transform="translate(0 3.983)">
      <path id="パス_1973" data-name="パス 1973" d="M288.246,262.438l4.1,2.577a1.5,1.5,0,0,1,.529,1.993l-.588,1.406c-1.815,5.332-4.158,10.6-8.258,15.234a42.825,42.825,0,0,1-19.041,12.009,1.5,1.5,0,0,1-1.523-.41l-4.394-5.1c-1-1.114-.644-2.05.762-2.462,7.5-1.932,13.123-5.331,16.7-8.9a21.924,21.924,0,0,0,4.393-6.152c.527-1.112,0-1.933-1.291-1.933H256.375c-1.053,0-3.28.059-5.448.176a1.39,1.39,0,0,1-1.582-1.465V263.9a1.389,1.389,0,0,1,1.582-1.465c1.991.176,3.983.235,5.448.235h26.54a13.6,13.6,0,0,0,3.867-.411A2.1,2.1,0,0,1,288.246,262.438Z" transform="translate(-249.345 -250.895)" fill="#dd295e"/>
      <path id="パス_1974" data-name="パス 1974" d="M373.2,252.064a1.223,1.223,0,0,1,1.113.176l4.8,3.223a1.55,1.55,0,0,1,.588,1.933c-.353,1.054-.7,2.343-.938,3.222-1.406,5.273-3.458,13.943-8.261,20.389-4.335,5.918-11.66,11.658-20.741,15.055a1.361,1.361,0,0,1-1.58-.409L343.2,289.97c-.879-1.056-.585-1.992.7-2.4,7.5-2.46,14.355-7.031,18.34-11.892a30.078,30.078,0,0,0,5.8-12.831,1.342,1.342,0,0,0-1.406-1.7h-22.79c-1.933,0-4.042.118-5.624.176a1.389,1.389,0,0,1-1.582-1.465v-6.269a1.4,1.4,0,0,1,1.641-1.523c1.874.176,4.218.353,5.565.353h24.782a26.27,26.27,0,0,0,4.453-.353Z" transform="translate(-239.848 -252.005)" fill="#594d98"/>
    </g>
    <g id="グループ_1434" data-name="グループ 1434" transform="translate(47.811 0.045)">
      <g id="グループ_1433" data-name="グループ 1433">
        <path id="パス_1975" data-name="パス 1975" d="M337.822,253.271l-4.863-4.394a1.419,1.419,0,0,0-2.168.176,61.31,61.31,0,0,1-13.533,11.482,82.41,82.41,0,0,1-23.551,9.61,1.306,1.306,0,0,0-.938,2.168l3.106,5.448a1.5,1.5,0,0,0,1.64.645,99.466,99.466,0,0,0,15.057-5.684,139.978,139.978,0,0,0,12.844-7.156A97.487,97.487,0,0,0,337.88,255.38,1.354,1.354,0,0,0,337.822,253.271Z" transform="translate(-292.465 -248.453)" fill="#ffad00"/>
      </g>
    </g>
    <path id="パス_1976" data-name="パス 1976" d="M337.822,253.271l-4.863-4.394a1.419,1.419,0,0,0-2.168.176,61.31,61.31,0,0,1-13.533,11.482,82.41,82.41,0,0,1-23.551,9.61,1.306,1.306,0,0,0-.938,2.168l3.106,5.448a1.5,1.5,0,0,0,1.64.645,99.466,99.466,0,0,0,15.057-5.684,139.978,139.978,0,0,0,12.844-7.156A97.487,97.487,0,0,0,337.88,255.38,1.354,1.354,0,0,0,337.822,253.271Z" transform="translate(-244.654 -248.408)" fill="#ffad00"/>
    <path id="パス_1977" data-name="パス 1977" d="M466.742,265h1.347c2.168,0,3.632-.059,4.922-.176a1.381,1.381,0,0,1,1.7,1.465v5.449a1.461,1.461,0,0,1-1.582,1.523c-1.288-.059-2.871-.059-4.98-.059h-2.109a.586.586,0,0,0-.644.644v.644c0,12.6-3.925,16.761-16.815,22.677a1.441,1.441,0,0,1-1.582-.292L442.6,292.6c-1-.995-.762-1.991.585-2.518,9.316-3.574,13.533-3.988,13.533-15.355v-.762a.706.706,0,0,0-.762-.762h-9.843a1.384,1.384,0,0,0-1.464,1.465v-.4c0,1.757.058,3.337.175,4.628a1.389,1.389,0,0,1-1.464,1.582H437.39a1.36,1.36,0,0,1-1.465-1.641q.176-1.936.176-4.569v.4a1.383,1.383,0,0,0-1.465-1.465h-2.168a14.653,14.653,0,0,0-2.168.118c-.938.059-1.043-.609-1.523-1.465l-3.13-5.684a1.337,1.337,0,0,1,1.641-1.465,41.91,41.91,0,0,0,5.18.294h2.168a1.383,1.383,0,0,0,1.465-1.465v-7.963a35.74,35.74,0,0,0-.235-3.808,1.383,1.383,0,0,1,1.465-1.641h6.094a1.383,1.383,0,0,1,1.464,1.641,35.932,35.932,0,0,0-.234,3.866v7.9A1.384,1.384,0,0,0,446.119,265h9.14a1.383,1.383,0,0,0,1.465-1.465v-8.549a36.888,36.888,0,0,0-.118-3.749,1.484,1.484,0,0,1,1.582-1.7h5.976a1.389,1.389,0,0,1,1.464,1.582,36.55,36.55,0,0,0-.233,3.866v8.666A1.261,1.261,0,0,0,466.742,265Z" transform="translate(-230.163 -248.29)" fill="#594d98"/>
    <path id="パス_1978" data-name="パス 1978" d="M520.215,285.93a55.431,55.431,0,0,0,18.515-6.443,54.055,54.055,0,0,0,19.918-19.744c.879-1.465,1.875-1.523,2.754,0l3.4,6.269a1.49,1.49,0,0,1,0,1.406c-4.511,7.674-12.187,15.116-21.209,20.386a59.615,59.615,0,0,1-18.98,7.207,1.337,1.337,0,0,1-1.465-.644l-3.984-6.152C518.458,287.044,518.867,286.165,520.215,285.93Z" transform="translate(-220.026 -247.302)" fill="#00948e"/>
    <path id="パス_1979" data-name="パス 1979" d="M471.178,253.117h-4.772a.373.373,0,0,0-.324.186l-2.387,4.134a.375.375,0,0,0,0,.374l2.387,4.134a.374.374,0,0,0,.324.187h4.772a.374.374,0,0,0,.324-.187l2.387-4.134a.375.375,0,0,0,0-.374L471.5,253.3A.373.373,0,0,0,471.178,253.117Z" transform="translate(-226.029 -247.901)" fill="#dd295e"/>
    <path id="パス_1980" data-name="パス 1980" d="M479.411,248.427h-4.773a.373.373,0,0,0-.324.186l-2.386,4.134a.369.369,0,0,0,0,.374l2.386,4.134a.372.372,0,0,0,.324.187h4.773a.374.374,0,0,0,.324-.187l2.386-4.134a.375.375,0,0,0,0-.374l-2.386-4.134A.376.376,0,0,0,479.411,248.427Z" transform="translate(-225.133 -248.411)" fill="#00948e"/>
    <g id="グループ_1435" data-name="グループ 1435" transform="translate(178.87 0.433)">
      <path id="パス_1981" data-name="パス 1981" d="M419.039,263.183l-1.408-2.515a.553.553,0,0,0-.962,0l-5.933,10.59a.551.551,0,0,0,.481.821h16.608a.551.551,0,0,0,.481-.821l-5.933-10.59a.552.552,0,0,0-.962,0L420,263.183A.552.552,0,0,1,419.039,263.183Z" transform="translate(-410.664 -247.543)" fill="#ffad00"/>
      <path id="パス_1982" data-name="パス 1982" d="M422.372,260.213l5.933-10.588a.552.552,0,0,0-.481-.822H411.216a.552.552,0,0,0-.481.822l5.933,10.588a.552.552,0,0,0,.962,0l1.408-2.514a.552.552,0,0,1,.962,0l1.408,2.514A.552.552,0,0,0,422.372,260.213Z" transform="translate(-410.664 -248.803)" fill="#00948e"/>
    </g>
    <g id="グループ_1436" data-name="グループ 1436" transform="translate(147.452 2.641)">
      <path id="パス_1983" data-name="パス 1983" d="M383.91,259.129c1.582-.059,3.4-.118,4.862-.118h16.991c1.639,0,6.862.059,8.5.176.879,0,1.84-.717,1.524-1.465l-3.258-6.186a1.055,1.055,0,0,0-.964-.57c-1.083.028-4.65.078-5.806.078H388.772c-1.406,0-3.162-.118-4.745-.235a1.4,1.4,0,0,0-1.7,1.465v5.39A1.389,1.389,0,0,0,383.91,259.129Z" transform="translate(-382.328 -250.795)" fill="#ffad00"/>
    </g>
    <path id="パス_1984" data-name="パス 1984" d="M394.482,271.739h-11.6c-1.171,0-2.694.059-4.042.118a1.389,1.389,0,0,1-1.581-1.465v-5.508a1.4,1.4,0,0,1,1.64-1.524,31.4,31.4,0,0,0,3.983.235h25.808c.821,0,3.433-.059,4.839-.176,1.056-.116,2.268.431,1.759,1.523L412,270.333c-.554,1-.644,1.523-1.582,1.465-1.288-.059-.619-.059-1.733-.059H394.482Z" transform="translate(-235.428 -246.787)" fill="#dd295e"/>
    <path id="パス_1985" data-name="パス 1985" d="M529.686,267.81h-5.807a.727.727,0,1,1,0-1.455h5.807a.727.727,0,1,1,0,1.455Z" transform="translate(-219.555 -246.46)" fill="#594d98"/>
    <path id="パス_1986" data-name="パス 1986" d="M533.014,266.01H520.971a.728.728,0,0,1,0-1.456h12.043a.728.728,0,0,1,0,1.456Z" transform="translate(-219.871 -246.656)" fill="#594d98"/>
    <path id="パス_1987" data-name="パス 1987" d="M534.441,264.21H519.71a.728.728,0,0,1,0-1.456h14.73a.728.728,0,0,1,0,1.456Z" transform="translate(-220.008 -246.852)" fill="#594d98"/>
    <path id="パス_1988" data-name="パス 1988" d="M535.311,262.409H519.129a.727.727,0,0,1,0-1.455h16.182a.727.727,0,1,1,0,1.455Z" transform="translate(-220.072 -247.048)" fill="#594d98"/>
    <path id="パス_1989" data-name="パス 1989" d="M535.552,260.609H518.886a.727.727,0,0,1,0-1.455h16.665a.727.727,0,0,1,0,1.455Z" transform="translate(-220.098 -247.244)" fill="#594d98"/>
    <path id="パス_1990" data-name="パス 1990" d="M535.253,258.809H519.177a.727.727,0,1,1,0-1.455h16.075a.727.727,0,1,1,0,1.455Z" transform="translate(-220.066 -247.44)" fill="#594d98"/>
    <path id="パス_1991" data-name="パス 1991" d="M534.393,257.009h-14.73a.727.727,0,1,1,0-1.455h14.73a.727.727,0,1,1,0,1.455Z" transform="translate(-220.014 -247.635)" fill="#594d98"/>
    <path id="パス_1992" data-name="パス 1992" d="M530.863,253.408h-7.9a.727.727,0,0,1,0-1.455h7.9a.727.727,0,1,1,0,1.455Z" transform="translate(-219.655 -248.027)" fill="#594d98"/>
    <path id="パス_1993" data-name="パス 1993" d="M532.579,255.209H521.019a.728.728,0,1,1,0-1.456h11.559a.728.728,0,0,1,0,1.456Z" transform="translate(-219.866 -247.831)" fill="#594d98"/>
    <path id="パス_1994" data-name="パス 1994" d="M502.755,267.917l-8.141,4.31a1.172,1.172,0,0,0-.625,1.037v13.062c0,1.935-.117,4.512-.294,6.328a1.468,1.468,0,0,0,1.523,1.7h7.014a1.648,1.648,0,0,0,1.664-1.867c-.181-1.823-.242-4.32-.242-6.158V268.459A.613.613,0,0,0,502.755,267.917Z" transform="translate(-222.76 -246.298)" fill="#ffad00"/>
    <path id="パス_1995" data-name="パス 1995" d="M519.282,253.23l-4.863-4.394a1.419,1.419,0,0,0-2.168.176,61.317,61.317,0,0,1-13.534,11.482,82.448,82.448,0,0,1-23.551,9.61,1.306,1.306,0,0,0-.937,2.168l3.1,5.446a1.5,1.5,0,0,0,1.641.646,99.637,99.637,0,0,0,15.056-5.684,140.107,140.107,0,0,0,12.844-7.156,97.423,97.423,0,0,0,12.465-10.187A1.353,1.353,0,0,0,519.282,253.23Z" transform="translate(-224.911 -248.412)" fill="#dd295e"/>
    <path id="パス_1996" data-name="パス 1996" d="M395.924,273.365a1,1,0,0,0-.983.876,19.21,19.21,0,0,1-2.8,8.272,24.935,24.935,0,0,1-7.381,6.505c-1.406.819-1.582,1.815-.235,2.752l4.981,3.574a1.452,1.452,0,0,0,1.465.118A26.061,26.061,0,0,0,401.456,284.8a31.585,31.585,0,0,0,2.925-10.3,1.013,1.013,0,0,0-1-1.135Z" transform="translate(-234.738 -245.698)" fill="#00948e"/>
    <path id="パス_1997" data-name="パス 1997" d="M313.04,293.621a.705.705,0,0,1-.7-.7V272.291a.7.7,0,0,1,1.408,0v20.626A.7.7,0,0,1,313.04,293.621Z" transform="translate(-242.492 -245.891)" fill="#00948e"/>
    <path id="パス_1998" data-name="パス 1998" d="M315,294.148a.7.7,0,0,1-.7-.7V270.79a.7.7,0,1,1,1.408,0v22.655A.7.7,0,0,1,315,294.148Z" transform="translate(-242.278 -246.054)" fill="#00948e"/>
    <path id="パス_1999" data-name="パス 1999" d="M316.957,294.235a.7.7,0,0,1-.7-.7V269.993a.7.7,0,0,1,1.408,0v23.539A.7.7,0,0,1,316.957,294.235Z" transform="translate(-242.065 -246.141)" fill="#00948e"/>
    <path id="パス_2000" data-name="パス 2000" d="M318.916,294.322a.7.7,0,0,1-.7-.7V269.2a.7.7,0,1,1,1.408,0v24.424A.7.7,0,0,1,318.916,294.322Z" transform="translate(-241.852 -246.228)" fill="#00948e"/>
    <path id="パス_2001" data-name="パス 2001" d="M320.874,294.04a.705.705,0,0,1-.7-.7V268.444a.7.7,0,0,1,1.408,0v24.891A.7.7,0,0,1,320.874,294.04Z" transform="translate(-241.639 -246.31)" fill="#00948e"/>
    <path id="パス_2002" data-name="パス 2002" d="M254.048,257.064v-5.331a1.444,1.444,0,0,1,1.7-1.523c1.464.118,3.161.176,4.511.176h21.148c1.291,0,3.282-.059,4.864-.176a1.444,1.444,0,0,1,1.7,1.523v5.39a1.389,1.389,0,0,1-1.581,1.465c-1.582-.059-3.576-.118-5.1-.118H260.258c-1.349,0-3.106.059-4.569.118A1.424,1.424,0,0,1,254.048,257.064Z" transform="translate(-248.833 -248.217)" fill="#00948e"/>
  </g>
</svg>
