<svg id="レイヤー_1" data-name="レイヤー 1" xmlns="http://www.w3.org/2000/svg" xmlns:xlink="http://www.w3.org/1999/xlink" viewBox="0 0 537 457"><defs><style>.cls-1{fill:none;}.cls-2{fill:#045a71;}.cls-3{fill:#d7da25;}.cls-4{fill:url(#新規パターンスウォッチ_12);}.cls-5{fill:url(#新規パターンスウォッチ_10);}.cls-6{fill:#bd1276;}.cls-7,.cls-8{isolation:isolate;}.cls-8{font-size:36px;fill:#fff;font-family:NotoSansJP-Medium-83pv-RKSJ-H, Noto Sans JP;}.cls-9{letter-spacing:0.03em;}.cls-10{letter-spacing:0.05em;}.cls-11{letter-spacing:0.04em;}.cls-12{letter-spacing:0.02em;}.cls-13{letter-spacing:0em;}</style><pattern id="新規パターンスウォッチ_12" data-name="新規パターンスウォッチ 12" width="120" height="207.85" patternTransform="matrix(0.01, 0.37, 0.37, -0.01, 683.78, 582.35)" patternUnits="userSpaceOnUse" viewBox="0 0 120 207.85"><rect class="cls-1" width="120" height="207.85"/><polygon class="cls-3" points="120 155.88 60 259.81 180 259.81 120 155.88"/><polygon class="cls-3" points="0 155.88 -60 259.81 60 259.81 0 155.88"/><polygon class="cls-3" points="60 51.96 0 155.88 120 155.88 60 51.96"/><polygon class="cls-3" points="120 -51.96 60 51.96 180 51.96 120 -51.96"/><polygon class="cls-3" points="0 -51.96 -60 51.96 60 51.96 0 -51.96"/></pattern><pattern id="新規パターンスウォッチ_10" data-name="新規パターンスウォッチ 10" width="120" height="177" patternTransform="matrix(0.53, -0.75, 0.75, 0.53, 165.46, -181.28)" patternUnits="userSpaceOnUse" viewBox="0 0 120 177"><rect class="cls-1" width="120" height="177"/><rect class="cls-2" width="30" height="177"/><rect class="cls-1" x="30" width="30" height="177"/><rect class="cls-2" x="60" width="30" height="177"/><rect class="cls-1" x="90" width="30" height="177"/></pattern></defs><ellipse class="cls-4" cx="402.14" cy="133.49" rx="132.3" ry="132.31" transform="translate(107.79 438.28) rotate(-64.36)"/><circle class="cls-5" cx="252.89" cy="336.76" r="116.81" transform="translate(-157.5 431.34) rotate(-66.07)"/><circle class="cls-6" cx="118" cy="191" r="116"/><g id="LIFE_DESIGN" data-name="LIFE DESIGN" class="cls-7"><text class="cls-8" transform="translate(64.7 137.69)"><tspan class="cls-9">L</tspan><tspan class="cls-10" x="21.02" y="0">I</tspan><tspan x="33.8" y="0">FE DE</tspan><tspan class="cls-11" x="130.64" y="0">S</tspan><tspan class="cls-12" x="153.86" y="0">I</tspan><tspan class="cls-13" x="165.74" y="0">GN</tspan></text></g><g id="ONLINE" class="cls-7"><text class="cls-8" transform="translate(66.2 152.45) rotate(90)">ONL<tspan class="cls-12" x="73.62" y="0">I</tspan><tspan x="85.5" y="0">NE</tspan></text></g></svg>