<svg id="レイヤー_1" data-name="レイヤー 1" xmlns="http://www.w3.org/2000/svg" xmlns:xlink="http://www.w3.org/1999/xlink" viewBox="0 0 637 892"><defs><style>.cls-1{fill:none;}.cls-2{fill:#d7da25;}.cls-3{fill:url(#新規パターンスウォッチ_12);}.cls-4{fill:#e2df00;}.cls-5{fill:#045a71;isolation:isolate;opacity:0.77;}</style><pattern id="新規パターンスウォッチ_12" data-name="新規パターンスウォッチ 12" width="120" height="207.85" patternTransform="matrix(0.59, 0, 0, -0.59, 159.8, -217.94)" patternUnits="userSpaceOnUse" viewBox="0 0 120 207.85"><rect class="cls-1" width="120" height="207.85"/><polygon class="cls-2" points="120 155.88 60 259.81 180 259.81 120 155.88"/><polygon class="cls-2" points="0 155.88 -60 259.81 60 259.81 0 155.88"/><polygon class="cls-2" points="60 51.96 0 155.88 120 155.88 60 51.96"/><polygon class="cls-2" points="120 -51.96 60 51.96 180 51.96 120 -51.96"/><polygon class="cls-2" points="0 -51.96 -60 51.96 60 51.96 0 -51.96"/></pattern></defs><circle class="cls-3" cx="217.25" cy="216.81" r="209.02"/><ellipse id="楕円形_55" data-name="楕円形 55" class="cls-4" cx="343.08" cy="716.28" rx="167.53" ry="166.62" transform="translate(-450.44 683.28) rotate(-62.03)"/><ellipse id="楕円形_56" data-name="楕円形 56" class="cls-5" cx="506" cy="584.9" rx="125.6" ry="125.17" transform="translate(-247.91 757.41) rotate(-62.03)"/></svg>