<svg id="レイヤー_1" data-name="レイヤー 1" xmlns="http://www.w3.org/2000/svg" xmlns:xlink="http://www.w3.org/1999/xlink" viewBox="0 0 514 321"><defs><style>.cls-1{fill:none;}.cls-2{fill:#bd1276;}.cls-3{fill:#045a71;}.cls-4{fill:url(#新規パターンスウォッチ_15);}.cls-5{fill:url(#新規パターンスウォッチ_9);}.cls-6{fill:#d7da25;}</style><pattern id="新規パターンスウォッチ_15" data-name="新規パターンスウォッチ 15" width="120" height="207.85" patternTransform="translate(296.62 334.97) scale(0.28 0.28)" patternUnits="userSpaceOnUse" viewBox="0 0 120 207.85"><rect class="cls-1" width="120" height="207.85"/><polygon class="cls-2" points="120 155.88 60 259.81 180 259.81 120 155.88"/><polygon class="cls-2" points="0 155.88 -60 259.81 60 259.81 0 155.88"/><polygon class="cls-2" points="60 51.96 0 155.88 120 155.88 60 51.96"/><polygon class="cls-2" points="120 -51.96 60 51.96 180 51.96 120 -51.96"/><polygon class="cls-2" points="0 -51.96 -60 51.96 60 51.96 0 -51.96"/></pattern><pattern id="新規パターンスウォッチ_9" data-name="新規パターンスウォッチ 9" width="120" height="207.85" patternTransform="matrix(0.26, 0.09, -0.09, 0.26, 86.7, 217.54)" patternUnits="userSpaceOnUse" viewBox="0 0 120 207.85"><rect class="cls-1" width="120" height="207.85"/><polygon class="cls-3" points="120 155.88 60 259.81 180 259.81 120 155.88"/><polygon class="cls-3" points="0 155.88 -60 259.81 60 259.81 0 155.88"/><polygon class="cls-3" points="60 51.96 0 155.88 120 155.88 60 51.96"/><polygon class="cls-3" points="120 -51.96 60 51.96 180 51.96 120 -51.96"/><polygon class="cls-3" points="0 -51.96 -60 51.96 60 51.96 0 -51.96"/></pattern></defs><circle class="cls-4" cx="104.69" cy="219.79" r="98.04"/><circle class="cls-5" cx="410.22" cy="104.59" r="99.16" transform="translate(115.88 408.87) rotate(-60.25)"/><circle class="cls-6" cx="190.49" cy="166.78" r="71.33" transform="translate(-48.9 84.34) rotate(-22.2)"/></svg>